<?xml version="1.0" encoding="UTF-8"?>
<!DOCTYPE svg PUBLIC "-//W3C//DTD SVG 1.1//EN" "http://www.w3.org/Graphics/SVG/1.1/DTD/svg11.dtd">
<svg xmlns="http://www.w3.org/2000/svg" xmlns:xlink="http://www.w3.org/1999/xlink" version="1.1" width="13px"
     height="13px" viewBox="-0.5 -0.5 292 296"
     style="background-color: rgb(255, 255, 255);">
    <defs/>
    <g>
        <ellipse mask="url(#cut)" cx="144" cy="145.5" rx="142" ry="142" fill="#D0D0D0" pointer-events="all"/>


        <!--<ellipse cx="121" cy="176" rx="12" ry="12" fill="#D0D0D0"
                 pointer-events="all"/>
        <ellipse cx="136" cy="148" rx="8" ry="8" fill="#D0D0D0"
                 pointer-events="all"/>-->

        <mask id="cut">
            <ellipse cx="144" cy="145.5" rx="142" ry="142" fill="#FFFFFF" pointer-events="all"/>
            <path d="M 106 116 L 126.15 71 L 165.85 71 L 186 116 Z" fill="#000000" stroke="none" pointer-events="all"/>
            <rect x="100" y="26" width="70" height="45" rx="6.75" ry="6.75" fill="#000000" stroke="none"
                  transform="rotate(-90,146,48.5)" pointer-events="all"/>
            <rect x="116" y="52" width="60" height="30" rx="12" ry="12" fill="#000000" stroke="none" pointer-events="all"/>
            <ellipse  cx="146" cy="181" rx="75" ry="75" fill="#000000" stroke="#000000" stroke-width="19" pointer-events="all"/>
            <!--<ellipse cx="144" cy="145.5" rx="142" ry="142" fill="#FFFFFF" stroke="#ffffff" stroke-width="4" pointer-events="all"/>
            <ellipse cx="146" cy="191" rx="80" ry="80" fill="#000000" stroke-width="19" pointer-events="all"/>
            <path d="M 106 116 L 126.15 71 L 165.85 71 L 186 116 Z" fill="#FFFFFF" stroke="none" pointer-events="all"/>
            <ellipse cx="146" cy="191" rx="80" ry="80" fill="none" stroke="#FFFFFF" stroke-width="19" pointer-events="all"/>
            <path d="M 116 134 L 136 80 L 156 80 L 176 134 Z" fill="#000000" stroke="none" pointer-events="all"/>-->
        </mask>

    </g>
</svg>
